<?xml version="1.0" encoding="UTF-8"?>
<svg width="903px" height="655px" viewBox="0 0 903 655" version="1.1" xmlns="http://www.w3.org/2000/svg" xmlns:xlink="http://www.w3.org/1999/xlink">
    <!-- Generator: Sketch 64 (93537) - https://sketch.com -->
    <title>logocleanedup2</title>
    <desc>Created with Sketch.</desc>
    <g id="Page-1" stroke="none" stroke-width="1" fill="none" fill-rule="evenodd">
        <g id="Group-2">
            <path d="M450.908999,654.941161 C902.408999,654.941161 902.999666,659.721019 902.999666,425 C902.999666,190.278981 700.856565,0 451.5,0 C202.143435,0 -0.000334159538,190.278981 -0.000334159538,425 C-0.000334159538,659.721019 -0.591001441,654.941161 450.908999,654.941161 Z" id="Oval" fill="#FDFAEF"></path>
            <path d="M626.67,437.516277 C638.73,438.516277 650.48,440.436277 662.3,441.006277 C676.07,441.666277 689.91,440.706277 703.69,441.256277 C730.59,442.326277 757.43,444.356277 783.18,453.126277 C788.29,454.866277 794.2,457.946277 798.76,460.746277 C781.81,461.166277 763.95,461.096277 747.31,461.226277 C744.68,461.246277 741.97,461.536277 739.45,462.236277 C735.06,463.446277 732.27,467.326277 733.05,471.106277 C733.93,475.356277 737.08,477.506277 741.18,477.986277 C744.14,478.336277 747.2,478.426277 750.15,478.076277 C760.53,476.846277 769.08,480.596277 777.59,486.226277 C784.25,490.636277 791.72,494.866277 799.39,496.406277 C808.34,498.196277 817.89,496.976277 827.18,497.056277 C830.64,508.526277 832.96,519.836277 831.22,532.236277 C829.67,533.936277 827.9,535.496277 827.08,536.916277 C826.45,537.996277 826.55,539.516277 825.9,540.576277 C819.81,550.566277 812.46,558.366277 799.15,556.226277 C795.91,555.706277 792.51,556.156277 789.19,556.156277 C784.6,556.156277 780,556.156277 776.02,556.156277 C774.02,549.566277 772.69,543.716277 770.49,538.216277 C762.55,518.316277 747.96,504.626277 729.08,495.206277 C715.77,488.566277 701.49,487.346277 686.9,488.096277 C682.69,482.146277 677.2,481.016277 670.37,483.076277 C657.26,487.036277 645.72,494.576277 635.04,503.296277 C634.23,502.256277 634.29,501.086277 634.08,500.286277 C632.02,492.656277 625.71,490.196277 619.22,494.576277 C617.44,495.776277 615.77,497.166277 614.12,498.556277 C598.18,512.016277 580,518.546277 559.04,516.176277 C551.35,515.306277 543.72,514.096277 535.87,512.786277 C535.07,512.586277 534.52,512.356277 533.79,512.056277 C533.58,511.996277 533.16,511.946277 532.92,511.686277 C514.89,504.476277 500.22,493.506277 489.23,477.786277 C486.24,473.506277 482.85,469.936277 479.68,465.326277 C475.15,454.166277 473.35,442.166277 473.34,430.566277 C473.33,424.346277 472.46,418.856277 467.75,414.476277 C476.76,415.476277 485.88,415.886277 494.74,417.596277 C517.14,421.926277 539.34,427.346277 561.8,431.366277 C583.12,435.206277 604.6,438.356277 626.67,437.516277 M617.5,457.186277 C578.35,457.186277 539.19,457.176277 500.04,457.186277 C493.83,457.186277 489.3,459.436277 489.44,462.396277 C489.59,465.736277 493.7,467.916277 499.94,467.916277 C552.76,467.926277 605.57,467.946277 658.39,467.896277 C660.66,467.896277 663.26,467.746277 665.11,466.656277 C666.66,465.746277 668.17,463.346277 668.130777,461.636277 C668.1,460.246277 665.93,458.636277 664.37,457.626277 C663.39,456.986277 661.8,457.186277 660.48,457.186277 C646.49,457.166277 632.5,457.186277 617.5,457.186277 Z" id="Shape" fill="#5BC4A7" fill-rule="nonzero"></path>
            <path d="M495.89,209.256277 C486.2,210.116277 476.72,209.486277 467.79,205.156277 C452.34,197.656277 443.94,184.566277 439.04,168.746277 C433.25,150.046277 436.24,131.626277 441.45,113.476277 C444.76,101.936277 449.09,90.6762767 453.32,78.2262767 C459.83,82.7362767 465.31,86.1162767 470.32,90.0762767 C482.56,99.7562767 495.48,108.796277 506.47,119.756277 C521.93,135.176277 528.07,154.616277 523.97,176.446277 C522.11,186.366277 517.59,195.236277 509.28,202.096277 C498.74,180.376277 488.91,158.786277 478.99,137.236277 C478.18,135.476277 477.07,133.626277 475.58,132.506277 C474.53,131.706277 472.35,131.526277 471.15,132.086277 C470.31,132.476277 469.67,134.766277 470,135.896277 C470.81,138.696277 472.23,141.326277 473.44,144.096277 C468.98,143.926277 468.64,146.286277 470.27,149.946277 C475,160.566277 479.7,171.196277 484.31,181.866277 C488.26,190.956277 492.04,200.116277 495.89,209.256277 Z" id="Path" fill="#5EC3A7" fill-rule="nonzero"></path>
            <path d="M266.16,236.426277 C262.77,239.376277 259.81,243.236277 255.9,245.106277 C237.63,253.856277 216.42,248.556277 201.88,232.076277 C189.35,217.866277 180.83,201.106277 172.06,184.526277 C171.76,183.966277 171.76,183.246277 171.4,181.566277 C177.29,180.136277 183.08,177.886277 189.01,177.466277 C202.37,176.516277 215.93,175.046277 229.15,176.376277 C254.32,178.906277 273.77,199.956277 271.64,225.906277 C255.82,217.436277 240.27,208.146277 224.75,199.296277 C224.32,199.056277 223.77,198.686277 223.38,198.786277 C222.11,199.106277 220.61,199.336277 219.76,200.176277 C219.39,200.546277 220.07,202.606277 220.82,203.356277 C222.42,204.936277 224.37,206.166277 226.18,207.536277 C224.31,207.846277 222.8,207.276277 221.25,207.156277 C219.92,207.056277 218.55,207.476277 217.2,207.666277 C217.85,209.036277 218.13,210.906277 219.21,211.676277 C221.74,213.486277 224.62,214.806277 227.4,216.256277 C240.32,222.986277 253.24,229.706277 266.16,236.426277 Z" id="Path" fill="#5EC2A7" fill-rule="nonzero"></path>
            <path d="M319.21,317.336277 C313.78,326.316277 304.89,329.866277 295.36,331.996277 C280.57,335.296277 266.75,332.696277 253.87,324.516277 C238.98,315.056277 226.87,302.616277 214.14,289.066277 C221.5,285.996277 227.99,283.186277 234.56,280.576277 C249.91,274.476277 265.51,269.286277 282.34,270.196277 C297.04,270.996277 309.61,276.416277 317.46,289.486277 C320.11,293.896277 321.04,299.336277 322.52,304.666277 C305.29,300.696277 288.3,296.336277 271.28,292.086277 C270.08,291.786277 268.65,292.376277 267.33,292.556277 C267.8,293.846277 267.95,295.426277 268.81,296.366277 C269.97,297.656277 271.66,298.456277 273.12,299.476277 C270.92,299.906277 268.88,299.136277 266.95,299.356277 C264.73,299.606277 262.62,300.736277 260.46,301.476277 C262.14,302.706277 263.65,304.616277 265.52,305.056277 C283.38,309.296277 301.31,313.286277 319.21,317.336277 Z" id="Path" fill="#08857A" fill-rule="nonzero"></path>
            <path d="M598.11,203.846277 C597.04,190.406277 608.41,171.656277 622.75,164.746277 C636.39,158.176277 650.93,157.506277 665.61,158.656277 C673.02,159.236277 680.35,160.776277 687.7,161.996277 C689.43,162.286277 691.09,163.036277 694.25,164.046277 C687.6,174.946277 681.7,185.266277 675.14,195.166277 C669.14,204.226277 662.13,212.506277 651.85,217.146277 C639.93,222.526277 627.56,224.226277 615.01,220.046277 C611.28,218.806277 606.74,214.586277 603.58,211.636277 C619.32,203.396277 636.29,196.936277 651.74,189.236277 C654.02,188.106277 655.87,186.136277 657.93,184.556277 C657.67,184.056277 657.42,183.546277 657.16,183.046277 C654.9,183.046277 652.64,183.046277 650.87,183.046277 C651.66,180.886277 652.32,179.056277 652.98,177.236277 C650.88,177.486277 648.54,177.246277 646.71,178.096277 C641.3,180.606277 636.13,183.626277 630.79,186.296277 C619.97,191.686277 608.96,198.506277 598.11,203.846277 Z" id="Path" fill="#5EC1A8" fill-rule="nonzero"></path>
            <path d="M545.68,318.006277 C550.18,295.356277 568.42,285.976277 589.64,288.566277 C610.18,291.076277 627.13,302.136277 643.98,313.646277 C643.52,314.546277 643.37,315.256277 642.94,315.616277 C629.78,326.516277 617.4,338.826277 601.01,344.746277 C585.06,350.506277 569.06,350.806277 554.99,339.186277 C552.24,336.916277 549.72,332.396277 547.63,328.916277 C562.41,326.086277 577.61,325.286277 592.15,322.876277 C594.4,322.506277 596.37,320.406277 598.46,319.106277 C596.91,317.816277 595.37,316.526277 594.64,315.916277 C595.55,314.106277 596.44,312.306277 597.34,310.516277 C595.39,310.296277 593.38,309.646277 591.51,309.926277 C576.31,312.196277 560.86,315.616277 545.68,318.006277 Z" id="Path" fill="#5CC1A9" fill-rule="nonzero"></path>
            <g id="Group" transform="translate(45.000000, 70.096277)" fill-rule="nonzero">
                <g id="drkgreen_leaves" transform="translate(33.000000, 0.000000)">
                    <path d="M219.75,117.43 C203.81,111.45 195.78,98.98 191.08,84.1 C185.65,66.91 187.07,49.06 187.17,31.09 C188.47,31.09 195.47,32.71 196.42,33.08 C210.4,37.41 217.77,40.98 230.53,47.47 C242.42,53.52 251.42,63.15 255.06,76.75 C258.15,88.28 257.72,99.33 250.92,109.54 C249.16,112.19 248.88,114.35 250.89,117.07 C253.65,120.8 255.87,124.93 258.54,128.74 C260.98,132.21 260.33,135.2 257.09,137.29 C253.87,139.37 250.4,139.28 247.98,135.7 C245.28,131.71 242.53,127.72 240.24,123.49 C238.54,120.35 236.64,119.04 232.87,119.14 C228.64,119.26 224.39,118.73 219.75,117.43 M208.41,66.13 C216.71,79.84 224.92,93.62 237.07,104.48 C231.69,85.34 220.29,70.45 205.33,58.06 C204.95,58.3 204.57,58.54 204.19,58.78 C205.47,61.03 206.75,63.27 208.41,66.13 Z" id="Shape" fill="#04343E"></path>
                    <path d="M118.15,237.73 C132.11,243.86 141.73,257.54 141.4,270.64 C150.06,272.41 158.75,274.22 167.46,275.96 C171.87,276.84 174.55,279.82 173.92,283.31 C173.29,286.82 169.67,288.8 165.28,287.86 C157.37,286.18 149.49,284.33 141.56,282.76 C140.17,282.48 138.17,282.67 137.14,283.5 C119.91,297.42 92.33,299.27 72.56,280.95 C62.45,271.58 52.92,261.6 43.1,251.92 C40.98,249.83 41.77,248.13 44.06,247.39 C57.03,243.18 69.88,238.38 83.12,235.31 C94.6,232.65 106.48,233.12 118.15,237.73 M107.37,268.09 C114.4,269.36 121.43,270.62 128.46,271.89 C128.57,271.33 128.68,270.77 128.79,270.21 C114.17,259.72 97.53,256.12 79.73,256.4 C87.92,262.08 97,265.6 107.37,268.09 Z" id="Shape" fill="#04333F"></path>
                    <path d="M576.97,237.71 C576.27,233.15 578.92,231.49 582.09,229.84 C583.45,229.13 585.02,227.2 585.04,225.79 C585.44,203.15 597.5,188.25 620.06,182.9 C633.54,179.71 647.02,180.69 660.49,182.99 C665.19,183.79 669.89,184.64 675.57,185.65 C674.61,188.35 674.07,190.85 672.88,193 C664.48,208.21 657.26,224.16 644.26,236.42 C631.58,248.38 607.95,251.02 593.53,241.29 C590.79,239.44 588.7,239.99 586.3,241.11 C582.24,243.03 578.95,242.75 576.97,237.71 M634.69,208.19 C636.8,206.36 638.91,204.53 641.01,202.7 C640.74,202.36 640.48,202.02 640.21,201.68 C624.12,206.34 610.08,214.51 598.16,226.32 C612.18,224.37 623.35,216.89 634.69,208.19 Z" id="Shape" fill="#043542"></path>
                    <path d="M584.26,267.99 C602.4,264.17 618.88,268.87 634.91,275.66 C641.98,278.66 649.01,282.52 656.49,286.35 C654.93,288.19 653.79,289.36 652.94,290.15 C642.15,298.72 631.6,307.63 620.43,315.68 C604.09,327.46 582.14,331.42 566.81,319.5 C566.68,319.4 564.85,317.27 564.77,317.14 C557.97,306.34 547.09,309.19 537.16,308.9 C535.5,308.85 533.84,309.1 532.18,309.1 C526.96,309.09 524.84,307.39 524.799407,303.26 C524.76,299.11 526.74,297.53 532.26,297.49 C540.07,297.44 547.87,297.48 555.83,297.48 C559.35,281.56 569.19,272.44 584.26,267.99 M577.98,295.42 C574.76,296.93 571.53,298.45 568.31,299.96 C568.47,300.43 568.63,300.9 568.79,301.37 C585.94,302.2 602.05,298.49 617.03,289.74 C603.77,288.38 591.07,290.68 577.98,295.42 Z" id="Shape" fill="#04343E"></path>
                    <path d="M527.23,37.65 C528.02,51.96 530.08,65.9 524.15,79.23 C518.05,92.96 507.24,100.6 492.63,102.75 C489.29,103.24 487.62,104.58 486.36,107.34 C484.99,110.35 483.65,113.41 481.92,116.22 C479.62,119.95 475.63,120.99 472.54,118.86 C469.08,116.48 469.28,113.41 471.17,110.12 C471.75,109.12 472.27,108.08 472.89,107.1 C476.05,102.09 476.71,97.94 472.99,92.02 C463.22,76.45 467.56,53.55 482.81,40.72 C490.68,34.1 500.19,29.35 509.19,24.16 C514.15,21.29 519.59,19.25 525.54,16.5 C526.12,23.85 526.66,30.52 527.23,37.65 M505.71,49.21 C497.08,61.73 488.98,74.5 486.91,89.95 C496.07,81.08 510.31,53.32 511.49,42.73 C509.43,44.95 507.73,46.76 505.71,49.21 Z" id="Shape" fill="#043640"></path>
                    <path d="M277.57,52.4 C273.25,45.76 270.6,38.41 269.21,31.17 C267.38,21.65 267.23,10.3 266.56,0.79 C267.09,1.04 267.88,1.33 268.32,1.41 C286.12,4.77 302.99,9.95 315.61,24.01 C322.02,31.15 323.13,39.95 321.74,49.28 C321.43,51.36 322.36,53.73 323.14,55.81 C323.64,57.14 325.59,58.13 325.68,59.36 C325.84,61.61 325.86,65 324.54,65.93 C322.96,67.05 318.95,67.09 317.68,65.86 C314.58,62.86 311.89,63 308.01,63.89 C295.68,66.72 285.56,62.65 277.57,52.4 M288.89,30.52 C294.18,39.25 301.04,46.26 311.58,51.31 C305.91,41.25 298.19,35 290.62,28.64 C290.41,28.46 289.16,29.49 288.89,30.52 Z" id="Shape" fill="#043541"></path>
                    <path d="M653.99,317.59 C661.43,316.13 668.57,314.94 673.86,314.05 C677.8,306.78 680.12,299.79 684.63,294.77 C692.72,285.77 704.26,285.58 715.22,287.23 C723.96,288.55 732.49,291.47 740.99,294.11 C746.09,295.7 746.3,297.04 742.78,300.85 C736.12,308.05 729.38,315.17 722.62,322.27 C713.09,332.29 696.12,334.02 685.45,327.39 C678.28,322.93 672.16,324.67 665.37,325.57 C662.76,325.92 660.16,327.01 657.61,326.86 C655.63,326.74 652.61,325.6 652.1,324.19 C651.5,322.48 653.06,320 653.99,317.59 M697.56,306.99 C693.61,308.99 689.65,311 685.7,313 C685.98,313.56 686.26,314.13 686.54,314.69 C696.81,313.61 706.09,310 713.9,302.4 C708.71,303.89 703.53,305.38 697.56,306.99 Z" id="Shape" fill="#043640"></path>
                    <path d="M71.11,319.95 C68.26,320.2 65.45,319.75 63.44,320.82 C53.96,325.9 44.29,328.04 33.94,323.97 C31.51,323.01 29.04,321.84 27.03,320.21 C24.08,317.82 21.37,315.07 18.84,312.22 C12.9,305.55 7.11,298.72 0.13,290.65 C8.65,288.24 15.88,285.68 23.33,284.24 C29.14,283.12 35.21,283.1 41.17,283.14 C55.69,283.22 66.8,292.71 69.63,306.84 C69.86,308.01 71.13,309.52 72.24,309.88 C77.25,311.5 82.39,312.7 87.44,314.19 C90.61,315.13 93.72,316.58 92.83,320.66 C91.9,324.94 88.3,324.57 85.2,323.86 C80.59,322.79 76.08,321.28 71.11,319.95 M38.4,300.01 C36.37,299.65 34.35,299.29 32.32,298.93 C40.08,306.33 49.12,310.12 60.79,310.17 C54.12,303.98 46.31,302.82 38.4,300.01 Z" id="Shape" fill="#053541"></path>
                    <path d="M76.73,207.31 C66.19,198.01 59.07,186.56 50.79,174.87 C66.75,170.4 81.77,168.31 96.98,170.8 C107.8,172.57 116.23,182.04 117.67,193.04 C118.17,196.85 119.49,198.38 123.12,199.36 C125.03,199.87 126.9,202.3 127.71,204.3 C128.04,205.12 125.79,207.8 124.26,208.35 C122.61,208.94 120.43,207.86 118.47,207.82 C117.03,207.79 115.31,207.85 114.17,208.58 C102.18,216.21 89.04,215.9 76.73,207.31 M82.99,185.84 C82.86,185.77 82.74,185.69 82.61,185.63 C82.54,185.6 82.45,185.6 82.37,185.58 C82.74,185.61 83.11,185.64 83.01,186.25 C90.34,193.44 99.05,197.19 109.29,197.09 C101.55,191.2 92.64,188.04 82.99,185.84 Z" id="Shape" fill="#043440"></path>
                    <path d="M675.93,274.21 C672.84,273.31 669.96,272.82 667.57,271.47 C664.53,269.75 661.81,268.44 658.33,270.21 C655.61,271.6 653.43,270.16 653.19,267.54 C653.03,265.72 654.22,263.48 655.46,261.95 C656.38,260.81 658.34,260.51 659.76,259.87 C661.12,241.15 672.75,230.25 691.52,229.95 C707.54,229.69 716.16,230.93 725.66,235.02 C724.56,237 723.67,239.06 722.39,240.83 C716.6,248.86 711.17,257.22 704.7,264.66 C697.37,273.11 687.38,275.68 675.93,274.21 M690.66,247.22 C674.88,253.22 672.06,254.85 669.58,259.55 C679.77,257.78 688.29,253.18 695.88,246.27 C695.31,246.13 694.97,245.92 694.7,245.99 C693.59,246.29 692.5,246.68 690.66,247.22 Z" id="Shape" fill="#043542"></path>
                    <path d="M608.08,146.96 C610,129.73 620.16,120 637.83,119.29 C646.21,118.95 654.66,120.17 663.07,120.68 C666.74,120.9 667.2,122.64 665.54,125.6 C661.33,133.13 657.25,140.74 653.01,148.26 C645.28,161.94 625.89,165.73 614.11,160.21 C612.98,159.68 611.38,159.97 610.03,160.15 C608.91,160.3 607.72,161.33 606.76,161.12 C604.73,160.66 602.83,159.63 600.87,158.84 C601.88,156.88 602.41,154.17 604.02,153.15 C606.41,151.66 608.54,150.63 608.08,146.96 M639.8,134.55 C631.48,137.81 622.86,140.59 616.57,149.36 C626.47,145.94 634.69,142.1 641.56,134.9 C641.6,134.67 641.63,134.44 641.67,134.22 C641.28,134.24 640.89,134.27 639.8,134.55 Z" id="Shape" fill="#053541"></path>
                </g>
                <g id="car_outline" transform="translate(0.000000, 74.000000)">
                    <path d="M331.33,364.68 C345.02,385.28 352.36,407.42 351.79,431.98 C351.68,436.85 348.37,440.78 343.19,441.19 C339.38,441.49 335.52,441.51 331.7,441.35 C324.02,441.04 319.26,444.84 316.17,451.55 C311.62,461.45 305.5,470.28 297.01,477.22 C286.04,486.18 273.22,490.82 259.24,491.92 C237.41,493.63 217.71,488.5 202.02,472.27 C194.85,464.85 188.74,456.63 186.02,446.43 C184.08,439.16 185.27,435.95 190.46,433.48 C195.65,431.02 203.28,433.02 206.55,437.83 C207.57,439.33 208.28,441.04 209.08,442.68 C220.91,466.72 251.26,476.43 274.6,463.29 C299.09,449.5 303.33,417.84 290.06,397.55 C280.63,383.13 266.94,376.2 250.24,376.08 C199.26,375.72 148.27,375.88 97.28,375.88 C91.95,375.88 87.39,374.57 84.68,369.54 C81.05,362.81 84.58,355.68 92.17,354.8 C96.46,354.3 100.81,354.32 105.14,354.3 C122.47,354.21 139.8,354.02 157.12,354.25 C165,354.35 168.2,350.17 168.35,345.2 C168.51,339.89 163.74,335.95 156.95,335.94 C121.13,335.85 85.3,335.87 49.48,335.73 C46.74,335.72 43.84,335.23 41.31,334.21 C37.77,332.78 35.3,330.06 35.42,325.86 C35.54,321.44 36.83,317.51 41.41,315.88 C44.02,314.95 46.86,314.18 49.6,314.18 C113.75,314.03 177.9,313.48 242.04,314.18 C268.81,314.47 292.44,325.12 312.12,343.42 C319.01,349.83 324.82,357.36 331.33,364.68 Z" id="Path" fill="#03343E"></path>
                    <path d="M50.97,415.22 C45.49,415.2 40.51,415.25 35.52,415.14 C29.36,415.01 24.65,410.66 24.6299808,405.24 C24.62,398.8 28.51,395.04 35.38,395 C42.86,394.96 50.34,394.79 57.81,395.08 C65.84,395.4 71.33,402.99 67.76,409.27 C66.23,411.96 64.43,412.96 61.23,414.4 C58.94,415.31 54.13,415.22 50.97,415.22 Z" id="Path" fill="#04333F"></path>
                    <path d="M58.92,368.7 C63.31,372.6 63.95,375.7 61.36,379.07 C58.91,382.26 54.25,382.95 51.21,380.57 C48.3,378.3 47.67,373.99 49.83,370.8 C52.06,367.52 55.17,367.38 58.92,368.7 Z" id="Path" fill="#073544"></path>
                    <path d="M205.39,396.13 C202.96,394.99 200.32,394.73 197.62,394.72 C163.62,394.69 129.63,394.82 95.63,394.96 C90.03,394.98 84.65,397.74 84.6897783,404.51 C84.74,411.75 88.14,414.77 92.01,414.83 C92.14,414.88 94.62,414.95 95.7,414.95 C130.74,415.08 165.37,415.12 200,415.14 C200.98,415.14 202.32,415.2 203.79,415.01 C208.65,414.37 210.75,409.26 210.691248,404.79 C210.63,399.8 207.57,397.15 205.39,396.13 Z" id="Path" fill="#01313C"></path>
                    <path d="M809.11,363.97 C803.8,326.58 783.45,301.21 748.11,287.87 C721.69,277.9 694.01,275.58 666.16,274.76 C646.56,274.18 626.93,274.62 607.34,273.84 C594.52,273.33 582.24,269.89 571.3,262.73 C560.45,255.63 549.74,248.32 538.76,241.44 C514.65,226.33 489.7,212.95 461.61,206.72 C454.36,205.11 446.99,203.75 439.6,203.14 C433.07,202.6 428.54,207.94 428.88,214.53 C429.17,220.14 432.63,223.41 439.49,225.02 C448.36,227.1 457.32,228.94 465.99,231.67 C490.76,239.46 512.94,252.43 534.52,266.59 C549.69,276.54 565.2,288.69 582.2,293.47 C593.98,294.79 605.48,296.35 617.3,296.92 C631.07,297.58 644.91,296.62 658.69,297.17 C685.59,298.24 712.43,300.27 738.18,309.04 C743.29,310.78 747.97,313.79 753.01,316.52 C767.35,323.3 775.69,334.82 780.96,348.98 C781.35,350.04 781.66,351.14 782.1,352.59 C785.65,364.44 787.41,376.1 786.05,388.5 C786.49,399.56 784.49,409.46 774.77,415.44 C770.6,418.01 765.24,419.48 760.31,419.79 C750.19,420.43 740,419.88 729.84,419.98 C725.95,420.02 724.71,418.45 723.88,414.51 C717.62,384.79 702.23,362.36 671.56,354.07 C662.19,351.54 651.99,352.05 641.68,351.05 C636.61,351.47 629.02,353.61 623.71,356.25 C607.02,364.55 598.61,374.64 589.44,393.22 C585.78,400.65 580.55,405.36 573.6,408.79 C569.63,410.75 565.49,412.39 561.36,414.02 C545.1,420.44 528.05,420.2 510.98,420.06 C496.43,419.94 482.52,417.05 468.9,411.97 C415.58,392.08 388.88,339.76 388.44,294.51 C388.27,277.58 390.59,261.19 395.05,244.98 C396.91,238.31 401.12,228.31 404.01,222.63 C414.03,202.98 426.64,185.43 446.1,174.04 C456.98,167.67 468.3,162.06 479.36,155.99 C499.21,145.09 514.31,130.14 519.55,107.26 C521.83,97.3 523.46,87.18 525.31,77.12 C525.55,75.83 525.45,74.46 525.38,73.13 C524.96,66.06 519.1,62.22 512.38,64.59 C507.48,66.32 505.18,70.3 503.96,74.93 C502.46,80.62 501.23,86.39 499.98,92.15 C496.53,108.05 489.24,121.68 475.54,130.91 C468.16,135.88 460.12,139.97 452.09,143.86 C426.28,156.37 404,172.87 389.09,198.02 C387.12,200.69 387.24,200.47 385.63,201.8 C384.91,197.22 381.16,171.72 380.85,169.96 C380.25,166.42 379.04,154.57 378.91,152.97 C378.61,150.07 378.51,148.69 378.27,146.56 C378.07,143.79 377.9,141.89 377.8,140.55 C376.11,125.67 374.25,111.24 372.8,96.78 C370.14,70.23 367.71,43.66 365.2,17.1 C364.77,12.52 362,10.06 357.27,10.11 C352.18,10.17 348.93,13.07 348.83,17.78 C348.76,20.8 348.82,23.83 348.82,26.86 C348.61,29.05 349.69,31.35 346.88,28.19 C342.49,23.21 338.3,18.02 333.65,13.3 C329.71,9.3 325.51,5.42 320.89,2.26 C316.89,-0.47 312.38,0.66 309.08,4.06 C305.83,7.4 304.79,11.65 307.24,15.92 C308.79,18.62 310.8,21.16 312.99,23.39 C322.07,32.67 331.31,41.79 340.45,51.02 C341.46,52.04 342.62,53.3 342.86,54.61 C344.04,60.94 345.2,67.3 345.88,73.7 C348.14,95.12 350.04,115.66 352.54,137.1 C352.68,141.6 352.09,148.11 351.32,149.42 C350.39,149.64 342.66,144.28 337.9,140.08 C335.99,138.22 330.95,134.2 326.99,130.35 C311.36,116.21 295.57,102.4 279.72,88.67 C275.2,84.76 270.7,80.77 265.84,77.33 C261.36,74.16 253.75,75.71 250.44,79.87 C247.44,83.64 248.06,90.54 251.97,94.47 C255.49,98.01 259.17,101.39 262.84,104.77 C280.13,120.66 298.13,135.86 314.58,152.58 C334.66,172.99 343.37,199.11 345.7,227.04 C347.34,246.8 347.42,266.78 343.87,286.5 C342.62,293.42 340.86,300.25 339.17,307.8 C337.33,306.49 336.65,306.04 336.01,305.53 C320.08,292.69 302.18,283.56 282.72,277.51 C264.46,271.84 245.67,270.73 226.67,271.39 C217,271.73 207.3,271.45 197.15,271.45 C198.01,270.77 198.59,270.28 199.2,269.83 C233.89,244.56 272.22,228.15 314.85,222.16 C320.76,221.33 324.63,218.16 325.68,213.35 C326.58,209.2 323.93,204.51 318.74,201.83 C316.93,200.9 314.68,200.24 312.68,200.36 C306.57,200.74 300.39,201.04 294.42,202.28 C248.86,211.78 207.8,230.85 171.8,260.52 C164.03,266.92 155.55,272.01 145.36,273.09 C138.61,273.81 131.77,273.92 124.96,273.94 C94.31,274.05 63.66,274.01 33,274.06 C25.5,274.07 18,274.07 10.52,274.37 C5.47,274.57 1.46,278.39 0.91,282.86 C0.26,288.17 2.62,292.34 7.74,294.17 C9.68,294.86 11.92,294.74 14.02,294.99 C15.42,294.67 16.81,294.06 18.21,294.06 C68.43,294.01 118.65,294.02 168.86,294.03 C169.68,294.03 170.49,294.23 172.09,294.69 C194.37,294.99 215.87,295.2 237.35,294.85 C267.43,294.36 294.13,303.54 317.72,322 C352.09,348.9 368.35,385 370.94,427.86 C371.52,437.46 374.77,441.12 384.18,441.12 C445.16,441.13 506.15,441.26 567.13,441.04 C578.21,441 585.51,444.85 590.29,455.25 C595.36,466.27 603.91,474.78 614.11,481.45 C628.77,491.03 645.02,493.58 662.11,491.91 C673.86,490.76 684.89,487.01 694.38,480.06 C705.37,472 713.68,461.57 718.92,448.75 C720.96,443.77 725.2,441.17 730.81,441.18 C742.31,441.2 753.81,440.96 765.3,441.24 C784.42,441.69 800.75,430.63 806.99,412.64 C812.54,396.61 811.43,380.31 809.11,363.97 Z M658.83,468.76 C634.42,471.47 610.42,455.31 607.05,429.72 C602.57,395.73 632.07,369.5 665.56,377.67 C684.22,383.28 695.33,395.59 698.55,413.4 C703.69,441.85 683.68,466 658.83,468.76 Z" id="Shape" fill="#03343F"></path>
                    <path d="M422.32,270.32 C427.65,271.32 428.34,280.27 428.34,286.49 C428.35,298.09 430.51,309.41 435,320.93 C440.96,338.71 452,352.01 466.38,362.31 C472.83,366.93 488.61,373.89 489.34,373.97 C495.58,375.57 501.38,377.49 507.32,378.58 C521.65,381.19 535.94,380.98 549.93,376.45 C557.97,373.85 561.3,375.17 564.97,382.93 C565.75,384.57 566.34,386.29 567.02,387.98 C561.49,395.62 553.09,397.78 544.56,399.29 C519.93,403.64 495.72,402.4 472.45,392.51 C447.64,381.96 430.68,363.2 418.14,339.89 C407.81,320.71 405.71,300.04 406.86,278.79 C407.23,272 412.82,268.98 422.32,270.32 Z" id="Path" fill="#023640"></path>
                </g>
            </g>
            <path d="M686.93,488.126277 C701.51,486.966277 715.77,488.586277 729.08,495.216277 C747.96,504.626277 762.55,518.316277 770.49,538.226277 C772.69,543.726277 774.02,549.576277 776.02,556.166277 C780,556.166277 784.59,556.166277 789.19,556.166277 C792.52,556.166277 795.91,555.716277 799.15,556.236277 C812.47,558.376277 819.81,550.576277 825.9,540.586277 C826.55,539.526277 826.45,538.006277 827.08,536.926277 C827.9,535.506277 829.73,533.676277 831.15,532.376277 C832.1,543.036277 829.47,553.556277 819.76,559.536277 C815.59,562.106277 810.23,563.576277 805.3,563.886277 C795.18,564.526277 784.99,563.976277 774.83,564.076277 C770.94,564.116277 769.7,562.546277 768.87,558.606277 C762.61,528.886277 747.22,506.456277 716.55,498.166277 C707.18,495.636277 696.71,496.396277 686.68,495.176277 C686.53,492.966277 686.88,490.426277 686.93,488.126277 Z" id="Path" fill="#09887B" fill-rule="nonzero"></path>
            <path d="M372.87,227.826277 C372.97,230.216277 373.19,232.206277 373.02,234.156277 C372.64,238.556277 369.72,241.326277 365.58,241.096277 C361.3,240.856277 358.25,238.746277 357.88,234.196277 C357.04,223.956277 356.35,213.706277 355.72,203.446277 C355.36,197.646277 357.65,194.436277 362.15,194.026277 C367.04,193.566277 370.59,197.076277 371.07,203.076277 C371.72,211.176277 372.24,219.296277 372.87,227.826277 Z" id="Path" fill="#052D3D" fill-rule="nonzero"></path>
            <path d="M244.47,153.166277 C239.46,157.906277 231.61,159.156277 226.09,155.366277 C221.65,152.316277 219.66,146.066277 221.5,140.796277 C223.24,135.806277 226.59,132.726277 231.98,132.266277 C237.28,131.816277 241.94,133.216277 244.93,137.886277 C248.13,142.876277 247.71,149.106277 244.47,153.166277 Z" id="Path" fill="#073544" fill-rule="nonzero"></path>
            <path d="M405.48,83.2462767 C404.48,75.6262767 407.49,70.5462767 413.7,68.6262767 C419.74,66.7562767 425.51,69.1562767 428.39,74.7262767 C431.29,80.3362767 430.04,86.4962767 425.21,90.4462767 C418.17,96.2062767 408.41,92.7562767 405.48,83.2462767 Z" id="Path" fill="#073544" fill-rule="nonzero"></path>
            <path d="M815.11,411.576277 C812.41,404.126277 814.78,397.536277 820.83,394.956277 C827,392.316277 833.5,394.456277 836.63,400.146277 C839.8,405.906277 838.02,412.796277 832.48,416.236277 C826.6,419.896277 819.69,418.176277 815.11,411.576277 Z" id="Path" fill="#053541" fill-rule="nonzero"></path>
            <path d="M652.97,132.816277 C651.72,138.696277 648.75,142.536277 642.9,143.296277 C637.95,143.936277 633.64,142.546277 630.9,138.096277 C628.05,133.476277 627.99,128.706277 631.02,124.096277 C633.54,120.266277 639.32,118.156277 643.69,119.326277 C649.34,120.856277 652.52,125.346277 652.97,132.816277 Z" id="Path" fill="#073544" fill-rule="nonzero"></path>
            <path d="M506.15,69.4862767 C512.57,72.6262767 515.17,77.3962767 513.93,83.1762767 C512.8,88.4262767 509.15,91.8062767 504.15,92.2262767 C497.72,92.7662767 493.53,90.3962767 491.61,84.7962767 C488.47,75.6262767 496.41,66.5862767 506.15,69.4862767 Z" id="Path" fill="#073544" fill-rule="nonzero"></path>
            <path d="M530.95,94.1062767 C531.31,88.6862767 533.39,84.6462767 538.34,83.0362767 C542.68,81.6262767 546.85,82.3562767 550.22,85.8262767 C554.41,90.1462767 555.05,94.9862767 552.13,100.236277 C549.73,104.546277 545,106.426277 539.34,105.316277 C534.55,104.386277 531.69,100.686277 530.95,94.1062767 Z" id="Path" fill="#053541" fill-rule="nonzero"></path>
            <path d="M115.26,276.136277 C123.1,274.216277 128.46,277.306277 130.28,284.526277 C131.71,290.206277 128.01,296.046277 121.92,297.716277 C115.96,299.356277 110.03,295.716277 108.22,289.316277 C106.89,284.586277 109.41,279.616277 115.26,276.136277 Z" id="Path" fill="#073544" fill-rule="nonzero"></path>
            <path d="M650.41,258.106277 C654.53,252.286277 658.36,246.636277 662.54,240.476277 C660.71,239.746277 659.7,239.336277 658.55,238.886277 C658.54,238.886277 658.54,238.886277 658.53,238.886277 C656.65,238.536277 653.79,238.606277 651.51,238.796277 C649.19,238.986277 646.46,238.916277 644.71,240.116277 C641.2,242.516277 638.22,245.706277 635.36,249.076277 C640.8,251.126277 638.82,253.176277 636.4,255.536277 C624.55,260.006277 612.98,264.726277 601.31,270.076277 C604.48,272.536277 607.56,275.116277 611.08,276.066277 C624.73,279.756277 637.51,274.496277 647.08,262.156277 C647.49,261.706277 647.64,261.556277 648.08,261.056277 C649.09,259.986277 649.5,259.166277 650.41,258.106277 Z" id="Path" fill="#36AC9D" fill-rule="nonzero"></path>
            <path d="M184.86,573.036277 C190.22,573.956277 193.64,576.486277 193.51,581.886277 C193.41,585.966277 191.45,589.076277 187.14,590.186277 C181.97,591.526277 177.23,588.806277 176.14,583.816277 C174.86,577.976277 177.91,573.996277 184.86,573.036277 Z" id="Path" fill="#073544" fill-rule="nonzero"></path>
            <path d="M88.64,323.796277 C92.91,319.696277 97.09,319.346277 100.13,322.556277 C102.86,325.436277 102.81,330.966277 99.27,333.076277 C97.13,334.356277 93.48,334.786277 91.22,333.856277 C86.98,332.096277 86.97,328.066277 88.64,323.796277 Z" id="Path" fill="#073544" fill-rule="nonzero"></path>
            <path d="M645.36,235.476277 C643.42,235.206277 640.98,234.926277 640.18,234.886277 C628.07,234.186277 623.62,234.556277 615.47,236.346277 C604.36,238.776277 596.19,250.326277 597.25,259.486277 C598.24,259.246277 599.05,258.716277 599.65,258.466277 C609.73,254.236277 619.8,250.006277 629.87,245.766277 C630.04,247.476277 630.18,249.806277 630,251.406277 C631.71,250.756277 633.42,250.636277 635.06,249.616277 C638.23,246.366277 640.33,243.256277 643.85,240.856277 C645.61,239.656277 648.74,238.836277 651.07,238.896277 C652.92,238.946277 656.54,239.136277 658.55,238.906277 C653.39,237.526277 650.7,236.546277 645.36,235.476277 Z" id="Path" fill="#5CC1A9" fill-rule="nonzero"></path>
            <path d="M59.48,439.176277 C60.42,438.746277 61.82,438.136277 63.22,438.136277 C113.44,438.086277 163.66,438.096277 213.87,438.106277 C214.69,438.106277 215.5,438.306277 216.64,438.676277 C195.2,439.106277 173.43,439.396277 151.67,439.436277 C121.09,439.486277 90.52,439.346277 59.48,439.176277 Z" id="Path" fill="#032329" fill-rule="nonzero"></path>
            <path d="M781.12,276.626277 C780.51,280.756277 776.35,282.176277 773.08,281.626277 C771.05,281.076277 769.14,280.076277 768.14,276.396277 C767.25,271.556277 769.83,268.446277 773.62,268.076277 C778.17,267.966277 781.66,270.636277 781.12,276.626277 Z" id="Path" fill="#073544" fill-rule="nonzero"></path>
            <path d="M816.76,331.156277 C820.71,336.896277 819.4,342.536277 814.08,342.896277 C811.72,343.056277 808.16,341.706277 807.07,339.886277 C805.97,338.056277 806.45,334.296277 807.69,332.256277 C809.63,329.066277 813.13,329.076277 816.76,331.156277 Z" id="Path" fill="#04343E" fill-rule="nonzero"></path>
            <path d="M150.7,213.936277 C152.51,209.396277 155.95,208.816277 159.42,210.316277 C162.78,211.766277 163.22,215.096277 162.26,218.426277 C161.22,222.016277 158.46,222.886277 155.2,222.176277 C150.96,221.256277 149.74,218.326277 150.7,213.936277 Z" id="Path" fill="#073544" fill-rule="nonzero"></path>
            <path d="M323.39,93.6562767 C323.83,98.5762767 320.69,102.236277 316.63,101.716277 C312.78,101.226277 310.17,97.7062767 311.39,94.0662767 C312.01,92.2162767 313.3,90.4062767 315.43,89.5762767 C319.26,88.3562767 323.03,90.4062767 323.39,93.6562767 Z" id="Path" fill="#1B9D8D" fill-rule="nonzero"></path>
            <path d="M74.79,387.436277 C80.59,390.166277 82.08,395.476277 77.85,398.036277 C76.06,399.116277 72.99,399.316277 71.06,398.536277 C69.62,397.956277 68.23,395.116277 68.31,393.346277 C68.47,389.936277 70.68,387.636277 74.79,387.436277 Z" id="Path" fill="#36AC9D" fill-rule="nonzero"></path>
            <path d="M190.44,386.796277 C192.53,383.176277 195.41,382.046277 198.46,384.246277 C199.96,385.336277 201.53,388.386277 201,389.716277 C200.27,391.556277 197.74,393.366277 195.68,393.836277 C192.16,394.636277 190.09,391.716277 190.44,386.796277 Z" id="Path" fill="#073544" fill-rule="nonzero"></path>
            <path d="M754.15,225.076277 C756.45,227.636277 755.1,231.006277 753.31,232.496277 C752.08,233.356277 749.32,234.236277 746.3,231.566277 C744.68,229.446277 745.12,227.336277 746,225.786277 C747.75,222.696277 751.06,222.626277 754.15,225.076277 Z" id="Path" fill="#148A7B" fill-rule="nonzero"></path>
            <path d="M476.53,270.976277 C478.96,269.036277 481.51,267.376277 484.4,265.736277 C485.5,266.836277 486.29,267.896277 487,269.016277 C488.65,271.636277 488.49,273.916277 485.84,275.886277 C483.22,277.836277 481.23,276.876277 479.42,274.746277 C478.46,273.616277 477.56,272.416277 476.53,270.976277 Z" id="Path" fill="#043841" fill-rule="nonzero"></path>
            <path d="M476.47,271.206277 C457.05,274.616277 447.69,262.706277 444.02,248.856277 C442.28,242.296277 441.29,235.536277 439.84,228.236277 C451.96,228.076277 463.01,228.106277 473,234.106277 C484.35,240.936277 488.73,252.596277 484.52,265.816277 C481.56,267.886277 479.01,269.546277 476.47,271.206277 M463.24,249.446277 C467.07,253.786277 470.9,258.136277 474.73,262.476277 C475.15,262.086277 475.58,261.706277 476,261.316277 C473.49,255.316277 468.64,251.316277 463.52,247.526277 C463.38,247.946277 463.23,248.356277 463.24,249.446277 Z" id="Shape" fill="#08857A" fill-rule="nonzero"></path>
            <path d="M710.95,521.896277 C729.22,527.366277 740.33,539.676277 743.55,557.496277 C748.69,585.956277 728.68,610.106277 703.83,612.856277 C679.42,615.566277 655.42,599.406277 652.05,573.816277 C647.57,539.816277 677.07,513.596277 710.95,521.896277 Z" id="Path" fill="#FDFAEF" fill-rule="nonzero"></path>
            <path d="M618,457.186277 C632.5,457.186277 646.49,457.166277 660.49,457.186277 C661.81,457.186277 663.4,456.996277 664.38,457.626277 C665.93,458.626277 668.1,460.236277 668.140773,461.636277 C668.18,463.346277 666.66,465.756277 665.12,466.656277 C663.27,467.746277 660.67,467.886277 658.4,467.896277 C605.58,467.946277 552.77,467.926277 499.95,467.916277 C493.71,467.916277 489.6,465.736277 489.45,462.396277 C489.32,459.436277 493.85,457.186277 500.05,457.186277 C539.19,457.186277 578.35,457.186277 618,457.186277 Z" id="Path" fill="#F2FAEC" fill-rule="nonzero"></path>
            <path d="M634.09,500.296277 C632.03,492.666277 625.72,490.206277 619.23,494.586277 C617.45,495.786277 615.78,497.176277 614.13,498.566277 C598.19,512.026277 580.01,518.556277 559.05,516.186277 C551.36,515.316277 544.06,513.956277 536.39,512.876277 C535.73,512.786277 533.22,511.846277 532.92,511.706277 C514.89,504.496277 500.25,491.876277 489.49,477.946277 C486.3,473.806277 482.28,468.576277 479.2,463.936277 C485.93,483.826277 496.99,496.106277 511.38,506.406277 C517.83,511.026277 532.66,517.726277 533.95,518.186277 C540.31,519.986277 546.38,521.586277 552.32,522.666277 C566.65,525.276277 580.94,525.066277 594.93,520.536277 C602.97,517.936277 606.3,519.256277 609.97,527.016277 C610.75,528.656277 611.08,530.286277 611.71,532.456277 C619.57,522.826277 627.88,513.016277 635.21,503.166277 C634.73,502.066277 634.3,501.096277 634.09,500.296277 Z" id="Path" fill="#148A7B" fill-rule="nonzero"></path>
            <path d="M286.22,135.916277 C284.77,133.396277 283.04,131.296277 280.83,126.566277 C280.83,126.566277 277.14,118.966277 277.22,118.516277 C292.18,130.906277 309.69,155.436277 315.07,174.576277 C302.91,163.716277 294.7,149.946277 286.22,135.916277 Z" id="Path" fill="#EEF6F1" fill-rule="nonzero"></path>
            <path d="M184.96,338.156277 C175,335.686277 165.92,332.166277 157.73,326.506277 C175.53,326.216277 192.17,329.816277 206.79,340.316277 C206.68,340.876277 206.57,341.436277 206.46,341.996277 C199.43,340.726277 192.4,339.456277 184.96,338.156277 Z" id="Path" fill="#EEF6F1" fill-rule="nonzero"></path>
            <path d="M712.41,278.516277 C701.35,286.986277 690.17,294.466277 676.16,296.416277 C688.08,284.606277 702.12,276.436277 718.21,271.776277 C718.48,272.116277 718.74,272.456277 719.01,272.796277 C716.9,274.626277 714.8,276.456277 712.41,278.516277 Z" id="Path" fill="#EEF6F1" fill-rule="nonzero"></path>
            <path d="M656.33,365.326277 C669.08,360.776277 681.77,358.476277 695.03,359.826277 C680.05,368.576277 663.94,372.286277 646.79,371.456277 C646.63,370.986277 646.47,370.516277 646.31,370.046277 C649.53,368.546277 652.76,367.026277 656.33,365.326277 Z" id="Path" fill="#EEF6F1" fill-rule="nonzero"></path>
            <path d="M583.87,118.986277 C585.73,116.856277 587.42,115.036277 589.49,112.826277 C588.31,123.416277 574.07,151.176277 564.91,160.046277 C566.97,144.586277 575.08,131.826277 583.87,118.986277 Z" id="Path" fill="#EEF6F1" fill-rule="nonzero"></path>
            <path d="M366.65,100.336277 C367.17,99.5862767 368.41,98.5562767 368.63,98.7462767 C376.2,105.106277 383.92,111.356277 389.59,121.416277 C379.04,116.356277 372.19,109.346277 366.65,100.336277 Z" id="Path" fill="#EEF6F1" fill-rule="nonzero"></path>
            <path d="M775.95,377.026277 C781.53,375.476277 786.72,373.986277 791.91,372.496277 C784.1,380.096277 774.82,383.706277 764.55,384.786277 C764.27,384.226277 763.99,383.656277 763.71,383.096277 C767.65,381.096277 771.6,379.086277 775.95,377.026277 Z" id="Path" fill="#EEF6F1" fill-rule="nonzero"></path>
            <path d="M116.79,370.206277 C124.31,372.926277 132.12,374.076277 138.8,380.266277 C127.13,380.216277 118.09,376.426277 110.33,369.026277 C112.35,369.386277 114.38,369.746277 116.79,370.206277 Z" id="Path" fill="#EEF6F1" fill-rule="nonzero"></path>
            <path d="M161.4,255.756277 C170.64,258.136277 179.55,261.296277 187.29,267.196277 C177.05,267.286277 168.34,263.546277 161.21,256.096277 C161.42,255.836277 161.4,255.756277 161.4,255.756277 Z" id="Path" fill="#EEF6F1" fill-rule="nonzero"></path>
            <path d="M161.46,255.806277 C161.12,255.746277 160.75,255.716277 160.37,255.676277 C160.45,255.686277 160.54,255.686277 160.61,255.726277 C160.74,255.786277 160.86,255.866277 161.2,255.846277 C161.4,255.756277 161.42,255.836277 161.46,255.806277 Z" id="Path" fill="#EEF6F1" fill-rule="nonzero"></path>
            <path d="M769.04,317.216277 C770.51,316.766277 771.59,316.386277 772.7,316.086277 C772.97,316.016277 773.31,316.216277 773.88,316.366277 C766.29,323.276277 757.77,327.876277 747.58,329.646277 C750.07,324.946277 752.89,323.316277 769.04,317.216277 Z" id="Path" fill="#EEF6F1" fill-rule="nonzero"></path>
            <path d="M719.03,205.126277 C712.69,212.196277 704.47,216.036277 694.57,219.466277 C700.86,210.696277 709.48,207.916277 718.27,204.726277 C718.74,204.786277 719.03,205.126277 719.03,205.126277 Z" id="Path" fill="#EEF6F1" fill-rule="nonzero"></path>
            <path d="M718.62,204.586277 C718.89,204.366277 719.28,204.336277 719.66,204.306277 C719.62,204.536277 719.59,204.766277 719.29,205.056277 C719.03,205.126277 718.74,204.786277 718.62,204.586277 Z" id="Path" fill="#EEF6F1" fill-rule="nonzero"></path>
            <g id="stems" transform="translate(217.000000, 131.096277)" fill-rule="nonzero">
                <path d="M279.06,78.46 C275.04,69.02 271.26,59.86 267.33,50.76 C262.72,40.09 258.02,29.46 253.29,18.84 C251.66,15.18 252.01,12.83 256.46,12.99 C255.25,10.22 253.83,7.59 253.02,4.79 C252.69,3.66 253.33,1.37 254.17,0.98 C255.37,0.42 257.54,0.6 258.6,1.4 C260.09,2.52 261.2,4.38 262.01,6.13 C271.92,27.68 282.72,50.26 292.92,71.96 C298.33,84.31 302.39,95.57 307.51,107.77 C310.63,115.21 310.02,119.32 305.27,121.42 C300.47,123.55 297.45,121.39 294.06,113.43 C289.12,101.87 284.17,90.32 279.06,78.46 Z" id="Path" fill="#043841"></path>
                <path d="M102.17,186.57 C83.9,182.49 66.38,178.2 48.52,173.97 C46.66,173.53 45.14,171.62 43.46,170.39 C45.62,169.64 47.74,168.52 49.95,168.27 C51.88,168.05 53.92,168.82 56.12,168.39 C54.66,167.38 52.97,166.57 51.81,165.28 C50.96,164.33 50.8,162.76 50.33,161.47 C51.65,161.29 53.08,160.7 54.28,161 C71.3,165.24 88.01,169.13 105.41,173.45 C113.88,175.78 121.54,177.05 129.57,179.54 C131.4,180.11 134.51,180.62 135.8,182.99 C137.02,185.09 136.66,188.92 135.77,190.18 C134.04,192.6 131.23,193.29 129.23,192.88 C120.39,191.06 111.29,188.86 102.17,186.57 Z" id="Path" fill="#023640"></path>
                <path d="M328.65,186.16 C344.15,183.55 359.31,181.11 374.5,178.84 C376.37,178.56 378.39,179.21 380.33,179.43 C379.43,181.23 378.53,183.02 377.63,184.83 C378.36,185.44 379.9,186.73 381.45,188.02 C379.35,189.32 377.39,191.41 375.14,191.79 C360.61,194.21 346.01,196.25 331.19,198.74 C322.41,200.17 313.86,201.24 305.32,202.39 C299.97,203.12 296.9,201.61 296.35,197.81 C295.87,194.46 299,191.79 303.99,190.93 C312.12,189.5 320.22,187.9 328.65,186.16 Z" id="Path" fill="#043640"></path>
                <path d="M381.02,71.51 C392.1,65.9 402.97,60.59 413.79,55.19 C419.13,52.52 424.3,49.5 429.71,46.99 C431.54,46.14 433.88,46.39 435.98,46.13 C435.32,47.96 434.65,49.78 433.87,51.94 C435.65,51.94 437.9,51.94 440.16,51.94 C440.42,52.44 440.67,52.95 440.93,53.45 C438.88,55.03 437.02,57 434.74,58.13 C419.29,65.82 403.76,73.34 388.03,81.24 C384.28,82.8 380.67,83.86 377.23,85.31 C374.01,86.67 371.64,85.88 370.09,82.99 C368.32,79.7 369.64,77.19 372.74,75.58 C375.38,74.22 378.11,73.04 381.02,71.51" id="Path" fill="#023640"></path>
                <path d="M49.26,105.38 C36,98.61 23.32,91.89 10.4,85.14 C7.62,83.69 4.74,82.37 2.21,80.56 C1.13,79.79 0.85,77.92 0.2,76.55 C1.55,76.36 2.92,75.94 4.25,76.04 C5.8,76.16 7.31,76.73 9.18,76.42 C7.37,75.05 5.42,73.82 3.82,72.24 C3.07,71.5 2.39,69.43 2.76,69.06 C3.61,68.22 5.11,67.99 6.38,67.67 C6.77,67.57 7.32,67.94 7.75,68.18 C23.26,77.03 39.03,85.94 54.86,94.86 C57.45,96.27 60.09,97.09 61.55,99.03 C62.96,100.9 63.89,104.26 63.13,106.25 C62.61,107.62 58.81,108.43 56.56,108.26 C54.25,108.08 52.03,106.52 49.45,105.46" id="Path" fill="#033642"></path>
                <path d="M419.52,124.47 C407.96,129.19 395.74,134.1 383.99,139.11 C380.23,140.5 375.35,142.61 372.87,143.35 C369.69,143.98 367.27,143.67 365.51,139.94 C363.66,136.02 366.28,134.48 369.14,133.17 C372.6,131.58 376.12,130.13 380.2,128.32 C381.41,127.8 382.03,127.6 382.64,127.35 C392.76,123.1 402.64,118.57 413.06,114.45 C413.19,116.24 413.25,118.17 413.03,120.16 C414.74,119.51 416.61,118.49 418.59,117.97 C424,119.64 422.59,122.96 419.52,124.47 Z" id="Path" fill="#023640"></path>
                <path d="M246.16,118.01 C246.23,117.26 246.37,116.84 246.52,116.43 C251.64,120.21 256.49,124.22 259,130.22 C258.58,130.61 258.15,130.99 257.73,131.38 C253.9,127.03 250.07,122.69 246.16,118.01 Z" id="Path" fill="#EEF6F1"></path>
            </g>
        </g>
    </g>
</svg>